<svg width="128" height="128" viewBox="0 0 128 128" fill="none" xmlns="http://www.w3.org/2000/svg">
  <!-- Background Circle with Gradient -->
  <circle cx="64" cy="64" r="60" fill="url(#gradient-bg)"/>
  
  <!-- Left Chat Bubble -->
  <path d="M40 40C34.4772 40 30 44.4772 30 50V65C30 70.5228 34.4772 75 40 75H45L50 85L55 75H60C65.5228 75 70 70.5228 70 65V50C70 44.4772 65.5228 40 60 40H40Z" fill="#8B5CF6" fill-opacity="0.9"/>
  
  <!-- Right Chat Bubble -->
  <path d="M88 50C93.5228 50 98 54.4772 98 60V75C98 80.5228 93.5228 85 88 85H83L78 95L73 85H68C62.4772 85 58 80.5228 58 75V60C58 54.4772 62.4772 50 68 50H88Z" fill="#67E8F9" fill-opacity="0.9"/>
  
  <!-- Gradient Definitions -->
  <defs>
    <linearGradient id="gradient-bg" x1="32" y1="10" x2="90" y2="128" gradientUnits="userSpaceOnUse">
      <stop offset="0" stop-color="#1E1B4B"/>
      <stop offset="1" stop-color="#0F172A"/>
    </linearGradient>
  </defs>
</svg>